<svg width="335" height="200" viewBox="0 0 335 200" fill="none" xmlns="http://www.w3.org/2000/svg">
<path d="M122.448 148.736H37.2L22.8 200H0.912L55.632 0.703991H104.016L158.736 200H136.848L122.448 148.736ZM42.096 128.864H117.552L87.312 19.712H72.336L42.096 128.864ZM261.179 0.703991C281.339 0.703991 296.795 5.11999 307.547 13.952C318.491 22.784 325.787 34.016 329.435 47.648C333.083 61.28 334.906 77.216 334.906 95.456C334.906 131.936 328.859 158.528 316.763 175.232C304.859 191.744 286.331 200 261.179 200H190.043V0.703991H261.179ZM261.179 180.416C295.163 180.416 312.155 152.768 312.155 97.472C312.155 70.592 308.027 51.008 299.771 38.72C291.515 26.432 278.651 20.288 261.179 20.288H212.219V180.416H261.179Z" fill="url(#paint0_linear_2_3)"/>
<defs>
<linearGradient id="paint0_linear_2_3" x1="359" y1="200" x2="35.8058" y2="-70.0356" gradientUnits="userSpaceOnUse">
<stop stop-color="#70FF00"/>
<stop offset="1" stop-color="#FE01C6"/>
<stop offset="1" stop-color="#FF00C7"/>
</linearGradient>
</defs>
</svg>
